<svg xmlns="http://www.w3.org/2000/svg" xmlns:xlink="http://www.w3.org/1999/xlink" width="189.5" height="132" viewBox="0 0 189.5 132"><defs><filter id="Rectangle_196" width="181" height="132" x="8.5" y="0" filterUnits="userSpaceOnUse"><feOffset dx="3" dy="3" input="SourceAlpha"/><feGaussianBlur result="blur" stdDeviation="10"/><feFlood flood-opacity=".102"/><feComposite in2="blur" operator="in"/><feComposite in="SourceGraphic"/></filter><filter id="Rectangle_197" width="162" height="60" x="0" y="45.5" filterUnits="userSpaceOnUse"><feOffset dx="3" dy="3" input="SourceAlpha"/><feGaussianBlur result="blur-2" stdDeviation="7.5"/><feFlood flood-opacity=".153"/><feComposite in2="blur-2" operator="in"/><feComposite in="SourceGraphic"/></filter></defs><g id="Group_300" data-name="Group 300" transform="translate(-1359.5 -2575)"><g id="Group_272" data-name="Group 272" transform="translate(1157 -165)"><g id="Group_264" data-name="Group 264" transform="translate(-157 7)"><rect id="Rectangle_195" width="121" height="86.375" fill="#113386" data-name="Rectangle 195" rx="7" transform="translate(395 2742.065)"/><g filter="url(#Rectangle_196)" transform="matrix(1, 0, 0, 1, 359.5, 2733)"><path id="Rectangle_196-2" fill="#fff" d="M0,0H121a0,0,0,0,1,0,0V65a7,7,0,0,1-7,7H7a7,7,0,0,1-7-7V0A0,0,0,0,1,0,0Z" data-name="Rectangle 196" transform="translate(35.5 27)"/></g><g id="Group_261" data-name="Group 261" transform="translate(-1.025)"><line id="Line_43" x2="67.989" y1=".072" fill="none" stroke="#fff" stroke-linecap="round" stroke-width="2.5" data-name="Line 43" transform="translate(410.051 2750.694)"/><line id="Line_62" x2="10.489" fill="none" stroke="#052882" stroke-linecap="round" stroke-width="2.5" data-name="Line 62" transform="translate(434.454 2781.517)"/><line id="Line_44" x2="29.559" fill="none" stroke="#052882" stroke-linecap="round" stroke-width="2.5" data-name="Line 44" transform="translate(434.454 2791.052)"/><line id="Line_45" x2="17.64" fill="none" stroke="#052882" stroke-linecap="round" stroke-width="2.5" data-name="Line 45" transform="translate(445.734 2800.587)"/><line id="Line_46" x2="45.053" fill="none" stroke="#052882" stroke-linecap="round" stroke-width="2.5" data-name="Line 46" transform="translate(410.051 2810.122)"/><line id="Line_63" x2="27.413" fill="none" stroke="#052882" stroke-linecap="round" stroke-width="2.5" data-name="Line 63" transform="translate(410.051 2819.657)"/><line id="Line_47" x2="15.146" y2=".124" fill="none" stroke="#052882" stroke-linecap="round" stroke-width="2.5" data-name="Line 47" transform="translate(460.433 2809.998)"/><line id="Line_48" x2="14.979" fill="none" stroke="#052882" stroke-linecap="round" stroke-width="2.5" data-name="Line 48" transform="translate(468.83 2819.657)"/><line id="Line_49" x2="14.91" fill="none" stroke="#052882" stroke-linecap="round" stroke-width="2.5" data-name="Line 49" transform="translate(489.035 2819.657)"/><line id="Line_50" x2="23.045" y2=".124" fill="none" stroke="#052882" stroke-linecap="round" stroke-width="2.5" data-name="Line 50" transform="translate(480.901 2809.998)"/><line id="Line_67" x2="18.174" fill="none" stroke="#052882" stroke-linecap="round" stroke-width="2.5" data-name="Line 67" transform="translate(410.5 2771.981)"/><line id="Line_64" x2="3.337" fill="none" stroke="#052882" stroke-linecap="round" stroke-width="2.5" data-name="Line 64" transform="translate(437.01 2800.587)"/><line id="Line_51" x2="3.337" fill="none" stroke="#052882" stroke-linecap="round" stroke-width="2.5" data-name="Line 51" transform="translate(477.752 2791.14)"/><line id="Line_52" x2="3.337" fill="none" stroke="#052882" stroke-linecap="round" stroke-width="2.5" data-name="Line 52" transform="translate(460.171 2819.657)"/><line id="Line_53" x2="3.337" fill="none" stroke="#052882" stroke-linecap="round" stroke-width="2.5" data-name="Line 53" transform="translate(467.256 2781.608)"/><line id="Line_40" x2="3.337" fill="none" stroke="#fff" stroke-linecap="round" stroke-width="2.5" data-name="Line 40" transform="translate(500.581 2750.694)"/><line id="Line_65" x2="3.337" fill="none" stroke="#052882" stroke-linecap="round" stroke-width="2.5" data-name="Line 65" transform="translate(428.428 2800.587)"/><line id="Line_54" x2="3.337" fill="none" stroke="#052882" stroke-linecap="round" stroke-width="2.5" data-name="Line 54" transform="translate(469.092 2791.14)"/><line id="Line_66" x2="3.337" fill="none" stroke="#052882" stroke-linecap="round" stroke-width="2.5" data-name="Line 66" transform="translate(433.93 2771.984)"/><line id="Line_55" x2="3.337" fill="none" stroke="#052882" stroke-linecap="round" stroke-width="2.5" data-name="Line 55" transform="translate(451.511 2819.657)"/><line id="Line_56" x2="3.337" fill="none" stroke="#052882" stroke-linecap="round" stroke-width="2.5" data-name="Line 56" transform="translate(458.596 2781.608)"/><line id="Line_41" x2="3.337" fill="none" stroke="#fff" stroke-linecap="round" stroke-width="2.5" data-name="Line 41" transform="translate(491.922 2750.694)"/><line id="Line_68" x2="13.111" fill="none" stroke="#052882" stroke-linecap="round" stroke-width="2.5" data-name="Line 68" transform="translate(410.025 2800.587)"/><line id="Line_61" x2="3.337" fill="none" stroke="#052882" stroke-linecap="round" stroke-width="2.5" data-name="Line 61" transform="translate(442.852 2819.657)"/><line id="Line_57" x2="3.337" fill="none" stroke="#052882" stroke-linecap="round" stroke-width="2.5" data-name="Line 57" transform="translate(450.199 2781.608)"/><line id="Line_58" x2="3.337" fill="none" stroke="#fff" stroke-linecap="round" stroke-width="2.5" data-name="Line 58" transform="translate(483.262 2750.694)"/><line id="Line_59" x2="20.5" fill="none" stroke="#052882" stroke-linecap="round" stroke-width="2.5" data-name="Line 59" transform="translate(442.589 2771.981)"/><line id="Line_60" x2="17.535" y1=".053" fill="none" stroke="#052882" stroke-linecap="round" stroke-width="2.5" data-name="Line 60" transform="translate(486.411 2791.052)"/><line id="Line_42" x2="28.031" fill="none" stroke="#052882" stroke-linecap="round" stroke-width="2.5" data-name="Line 42" transform="translate(475.915 2781.517)"/></g></g><g filter="url(#Rectangle_197)" transform="matrix(1, 0, 0, 1, 202.5, 2740)"><rect id="Rectangle_197-2" width="117" height="15" fill="#fff" data-name="Rectangle 197" rx="5" transform="translate(19.5 65)"/></g><line id="Line_69" x2="45.053" fill="none" stroke="#052882" stroke-linecap="round" stroke-width="2.5" data-name="Line 69" transform="translate(234.026 2812.5)"/><line id="Line_70" x2="15.146" y2=".124" fill="none" stroke="#052882" stroke-linecap="round" stroke-width="2.5" data-name="Line 70" transform="translate(284.408 2812.5)"/><line id="Line_71" x2="23.045" y2=".124" fill="none" stroke="#052882" stroke-linecap="round" stroke-width="2.5" data-name="Line 71" transform="translate(304.876 2812.5)"/></g></g></svg>